Title                            : The Cabin in the Woods
Year                             : 2011
Genre                            : Horror | Thriller
iMDB URL                         : http://www.imdb.com/title/tt1259521/

Complete name                    : The.Cabin.in.the.Woods.2011.BRRIP.720P.H264-ZEKTORM.mp4
Format                           : MPEG-4
Format profile                   : Base Media
Codec ID                         : isom
File size                        : 1.91 GiB
Duration                         : 1h 35mn
Subtitles                        : English (Format: srt)

Video
ID                               : 1
Format                           : AVC
Format/Info                      : Advanced Video Codec
Format profile                   : High@L4.0
Format settings, CABAC           : Yes
Format settings, ReFrames        : 12 frames
Codec ID                         : avc1
Codec ID/Info                    : Advanced Video Coding
Duration                         : 1h 35mn
Bit rate mode                    : Variable
Bit rate                         : 2683 Kbps
Width                            : 1280 pixels
Height                           : 528 pixels
Display aspect ratio             : 2.424
Frame rate mode                  : Constant
Frame rate                       : 23.976 fps
Resolution                       : 24 bits
Colorimetry                      : 4:2:0
Scan type                        : Progressive
Bits/(Pixel*Frame)               : 0.166
Stream size                      : 1.78 GiB (93%)
Title                            : Video
Writing library                  : x264

Audio
ID                               : 2
Format                           : AAC
Format/Info                      : Advanced Audio Codec
Format version                   : Version 4
Format profile                   : LC
Format settings, SBR             : No
Codec ID                         : 40
Duration                         : 1h 35mn
Bit rate mode                    : Variable
Bit rate                         : 184 Kbps
Maximum bit rate                 : 231 Kbps
Channel(s)                       : 6 channels
Channel positions                : Front: L C R, Rear: L R, LFE
Sampling rate                    : 48.0 KHz
Resolution                       : 16 bits
Stream size                      : 125 MiB (6%)
Language                         : English


Screenshots:

[img]http://img267.imageshack.us/img267/7987/snaptcitw1.png[/img]

[img]http://img214.imageshack.us/img214/3039/snaptcitw2.png[/img]
